<svg width="125" height="23" viewBox="0 0 125 23" fill="none" xmlns="http://www.w3.org/2000/svg">
<path d="M4.552 22.168V18.192H9.06C9.82533 18.192 10.3947 17.996 10.768 17.604C11.1413 17.212 11.328 16.6427 11.328 15.896C11.328 15.1493 11.1413 14.5893 10.768 14.216C10.3947 13.824 9.82533 13.628 9.06 13.628H4.552V10.548H8.892C10.3293 10.548 11.6173 10.7253 12.756 11.08C13.8947 11.416 14.7907 11.976 15.444 12.76C16.0973 13.544 16.424 14.5893 16.424 15.896V16.288C16.424 17.52 16.1347 18.5747 15.556 19.452C14.9773 20.3293 14.128 21.0013 13.008 21.468C11.888 21.9347 10.516 22.168 8.892 22.168H4.552ZM0.072 22.168V1.392H5.112V22.168H0.072ZM4.552 12.844V9.764H8.304C9.06933 9.764 9.62 9.57733 9.956 9.204C10.3107 8.812 10.488 8.27067 10.488 7.58C10.488 6.87067 10.3107 6.32933 9.956 5.956C9.62 5.564 9.06933 5.368 8.304 5.368H4.552V1.392H8.08C10.4693 1.392 12.3173 1.896 13.624 2.904C14.9307 3.89333 15.584 5.312 15.584 7.16V7.58C15.584 8.868 15.248 9.904 14.576 10.688C13.9227 11.4533 13.0267 12.004 11.888 12.34C10.768 12.676 9.49867 12.844 8.08 12.844H4.552ZM20.0721 22V6.544H25.1681V22H20.0721ZM18.1121 10.24V6.544H25.1681V10.24H18.1121ZM22.1721 5.312C21.2388 5.312 20.5481 5.07867 20.1001 4.612C19.6708 4.12667 19.4561 3.51067 19.4561 2.764C19.4561 2.01733 19.6708 1.41067 20.1001 0.943999C20.5481 0.458665 21.2294 0.215998 22.1441 0.215998C23.0774 0.215998 23.7588 0.458665 24.1881 0.943999C24.6174 1.41067 24.8321 2.01733 24.8321 2.764C24.8321 3.51067 24.6174 4.12667 24.1881 4.612C23.7588 5.07867 23.0868 5.312 22.1721 5.312ZM36.2784 22.224C34.5984 22.224 33.2544 22.0187 32.2464 21.608C31.2571 21.1973 30.5384 20.516 30.0904 19.564C29.6424 18.612 29.4184 17.324 29.4184 15.7L29.4464 2.512H34.1504L34.1224 15.84C34.1224 16.5307 34.2997 17.0627 34.6544 17.436C35.0277 17.7907 35.5597 17.968 36.2504 17.968H38.3784V22.224H36.2784ZM27.1784 10.24V6.544H38.3784V10.24H27.1784Z" fill="#01FF19"/>
<path d="M50.8817 22.56C49.0337 22.56 47.4471 22.2427 46.1217 21.608C44.7964 20.9547 43.7044 20.1053 42.8457 19.06C41.9871 17.996 41.3524 16.848 40.9417 15.616C40.5311 14.384 40.3257 13.1893 40.3257 12.032V11.416C40.3257 10.128 40.5311 8.868 40.9417 7.636C41.3711 6.38533 42.0151 5.256 42.8737 4.248C43.7511 3.24 44.8431 2.43733 46.1497 1.84C47.4564 1.24267 48.9871 0.943999 50.7417 0.943999C52.6084 0.943999 54.2604 1.29867 55.6977 2.008C57.1537 2.69867 58.3204 3.67867 59.1977 4.948C60.0751 6.19867 60.5884 7.65467 60.7377 9.316H55.5297C55.3991 8.60667 55.1191 7.99067 54.6897 7.468C54.2604 6.94533 53.7097 6.544 53.0377 6.264C52.3657 5.96533 51.6004 5.816 50.7417 5.816C49.9391 5.816 49.2111 5.956 48.5577 6.236C47.9231 6.516 47.3817 6.91733 46.9337 7.44C46.5044 7.944 46.1684 8.56 45.9257 9.288C45.7017 10.016 45.5897 10.8373 45.5897 11.752C45.5897 12.6667 45.7017 13.488 45.9257 14.216C46.1684 14.944 46.5137 15.5693 46.9617 16.092C47.4284 16.6147 47.9884 17.016 48.6417 17.296C49.2951 17.5573 50.0417 17.688 50.8817 17.688C52.1884 17.688 53.2897 17.3707 54.1857 16.736C55.1004 16.1013 55.6511 15.252 55.8377 14.188H61.0457C60.8777 15.7187 60.3644 17.1187 59.5057 18.388C58.6471 19.6573 57.4897 20.6747 56.0337 21.44C54.5777 22.1867 52.8604 22.56 50.8817 22.56ZM63.5589 22V1.56H68.6549V13.208H67.9829C67.9829 11.64 68.1789 10.324 68.5709 9.26C68.9629 8.196 69.5323 7.39333 70.2789 6.852C71.0443 6.31067 71.9869 6.04 73.1069 6.04H73.3309C75.0109 6.04 76.2896 6.64667 77.1669 7.86C78.0629 9.07333 78.5109 10.856 78.5109 13.208V22H73.4149V13.012C73.4149 12.3027 73.2003 11.724 72.7709 11.276C72.3416 10.8093 71.7723 10.576 71.0629 10.576C70.3536 10.576 69.7749 10.8093 69.3269 11.276C68.8789 11.724 68.6549 12.3213 68.6549 13.068V22H63.5589ZM89.1859 22.56C87.8793 22.56 86.7219 22.336 85.7139 21.888C84.7059 21.44 83.8566 20.8333 83.1659 20.068C82.4753 19.3027 81.9433 18.444 81.5699 17.492C81.2153 16.54 81.0379 15.56 81.0379 14.552V13.992C81.0379 12.9467 81.2153 11.948 81.5699 10.996C81.9433 10.0253 82.4659 9.16667 83.1379 8.42C83.8286 7.67333 84.6686 7.08533 85.6579 6.656C86.6473 6.208 87.7673 5.984 89.0179 5.984C90.6793 5.984 92.0886 6.35733 93.2459 7.104C94.4033 7.85067 95.2899 8.84 95.9059 10.072C96.5219 11.2853 96.8299 12.6107 96.8299 14.048V15.672H83.1659V12.928H93.8899L92.1259 14.16C92.1259 13.2827 92.0046 12.5453 91.7619 11.948C91.5379 11.332 91.1926 10.8653 90.7259 10.548C90.2779 10.2307 89.7086 10.072 89.0179 10.072C88.3459 10.072 87.7579 10.2307 87.2539 10.548C86.7686 10.8467 86.3953 11.3133 86.1339 11.948C85.8726 12.564 85.7419 13.348 85.7419 14.3C85.7419 15.1587 85.8633 15.9053 86.1059 16.54C86.3486 17.156 86.7219 17.632 87.2259 17.968C87.7299 18.304 88.3833 18.472 89.1859 18.472C89.8953 18.472 90.4739 18.3507 90.9219 18.108C91.3886 17.8653 91.7153 17.5387 91.9019 17.128H96.5499C96.3259 18.1733 95.8779 19.1067 95.2059 19.928C94.5526 20.7493 93.7126 21.3933 92.6859 21.86C91.6779 22.3267 90.5113 22.56 89.1859 22.56ZM105.648 22.504C103.408 22.504 101.644 22.0467 100.356 21.132C99.068 20.1987 98.3773 18.892 98.284 17.212H102.764C102.839 17.6787 103.128 18.08 103.632 18.416C104.136 18.752 104.845 18.92 105.76 18.92C106.413 18.92 106.973 18.8267 107.44 18.64C107.925 18.4347 108.168 18.108 108.168 17.66C108.168 17.268 107.981 16.9507 107.608 16.708C107.235 16.4467 106.553 16.2693 105.564 16.176L104.5 16.064C102.521 15.8587 101.065 15.3173 100.132 14.44C99.1986 13.5627 98.732 12.4613 98.732 11.136C98.732 9.99733 99.012 9.064 99.572 8.336C100.132 7.58933 100.907 7.02933 101.896 6.656C102.885 6.28267 104.015 6.096 105.284 6.096C107.356 6.096 109.027 6.55333 110.296 7.468C111.565 8.364 112.237 9.66133 112.312 11.36H107.832C107.757 10.8933 107.505 10.5013 107.076 10.184C106.647 9.848 106.031 9.68 105.228 9.68C104.649 9.68 104.173 9.78267 103.8 9.988C103.445 10.1933 103.268 10.4827 103.268 10.856C103.268 11.248 103.436 11.5373 103.772 11.724C104.127 11.9107 104.687 12.0507 105.452 12.144L106.516 12.256C108.495 12.4613 110.016 13.012 111.08 13.908C112.163 14.7853 112.704 15.9427 112.704 17.38C112.704 18.444 112.415 19.3587 111.836 20.124C111.276 20.8893 110.464 21.4773 109.4 21.888C108.355 22.2987 107.104 22.504 105.648 22.504ZM122.603 22.224C120.923 22.224 119.579 22.0187 118.571 21.608C117.581 21.1973 116.863 20.516 116.415 19.564C115.967 18.612 115.743 17.324 115.743 15.7L115.771 2.512H120.475L120.447 15.84C120.447 16.5307 120.624 17.0627 120.979 17.436C121.352 17.7907 121.884 17.968 122.575 17.968H124.703V22.224H122.603ZM113.503 10.24V6.544H124.703V10.24H113.503Z" fill="#38618C"/>
</svg>
